<svg width="36" height="36" viewBox="0 0 36 36" fill="none" xmlns="http://www.w3.org/2000/svg">
<path d="M22.3164 17.4812H19.7198C19.3267 17.4812 19.0051 17.1596 19.0051 16.7665L18.6478 10.7107C18.6478 10.7107 18.0696 5.69455 21.0687 5.03538C21.0687 5.03538 22.2882 2.66242 26.1936 3.42267C26.247 3.43308 26.2983 3.45224 26.3501 3.46829C27.2498 3.74736 28.0862 4.24113 28.7816 4.93298C30.9085 7.04935 30.4808 9.54979 30.5342 9.8608C30.5342 11.598 30.5616 9.6671 30.1768 16.7666C30.1768 17.1597 29.8553 17.4813 29.4622 17.4813H26.6997" fill="#7F7369"/>
<path d="M22.7676 17.4819V16.6321C21.1624 15.9228 20.1616 14.4048 20.0773 12.7407C20.0767 12.7297 20.075 12.6946 20.0747 12.6881C20.0724 12.6292 20.0709 12.5703 20.0709 12.5108C20.0718 9.83711 20.0693 9.9994 20.073 9.95545C20.0462 8.52844 20.2669 5.5348 22.5366 5.03597C22.5366 5.03597 23.2839 3.58215 25.4817 3.31504C23.8071 3.13101 21.8428 3.62858 21.0684 5.03597C19.0446 5.48078 18.5577 7.94504 18.6057 10.0053C18.6064 10.034 18.6071 10.062 18.608 10.0893C18.6198 10.4713 18.6475 10.7113 18.6475 10.7113L19.0048 16.7671C19.0048 17.1602 19.3264 17.4818 19.7195 17.4818C20.3485 17.4819 22.0803 17.4819 22.7676 17.4819Z" fill="#72655A"/>
<path d="M16.404 30.7291L17.1723 23.8642C17.4415 21.7913 17.3311 20.9949 18 20.1833C17.7934 19.9321 17.4985 19.6979 17.3041 19.5791L17.2827 19.5738C16.5594 19.1406 15.9505 19.1225 14.6065 18.7527L13.2321 18.0948V16.4531C12.0807 16.9623 10.7566 16.9445 9.64823 16.4625L9.64231 18.1016L8.27381 18.7527C6.93844 19.1202 6.32231 19.1398 5.59761 19.5739L5.57621 19.5792C5.51523 19.6164 5.4508 19.6613 5.38729 19.7116C4.35171 20.455 4.33531 21.4208 4.24608 22.1345L3.83481 25.8099C3.25555 31.0698 3.2731 30.6467 3.2731 31.0522C3.26401 31.7197 3.67356 32.7276 4.91774 32.7276C5.03314 32.7276 17.9017 32.7282 18 32.7266C16.8854 32.708 16.3064 31.8578 16.404 30.7291Z" fill="#F6DBE3"/>
<path d="M4.75487 31.0497C4.74486 30.4698 4.86613 30.4761 5.77469 21.0641C5.86967 20.2855 6.10571 19.6494 6.7849 19.123C6.68204 19.1557 6.1622 19.2353 5.59767 19.5736L5.57627 19.5788C5.51115 19.6186 5.44643 19.6645 5.38735 19.7112C4.35177 20.4547 4.33537 21.4205 4.24614 22.1342C4.23872 22.1992 3.2731 30.7673 3.2731 31.0518C3.26401 31.7194 3.67356 32.7272 4.91774 32.7272H6.39945C5.33229 32.7272 4.73612 31.9245 4.75487 31.0497Z" fill="#E3CED4"/>
<path d="M11.1246 19.5029V16.8179C10.5911 16.7821 10.0917 16.6545 9.6485 16.4619L9.64258 18.101L11.1246 19.5029Z" fill="#E3CED4"/>
<path d="M32.7154 30.7281C31.6689 21.4607 31.7278 21.7222 31.6341 21.2693C31.4821 20.534 31.0388 19.9539 30.4235 19.5781L30.4021 19.5728C30.1403 19.416 29.8483 19.2923 29.5348 19.202L26.5175 18.4508C26.4194 18.4064 26.3515 18.2604 26.3515 18.0938V16.6385C25.2143 17.1344 23.8889 17.1265 22.7676 16.6309V18.0939C22.7676 18.2604 22.6998 18.4065 22.6017 18.4509C20.0492 19.1309 19.4815 19.115 18.717 19.5729L18.6957 19.5782C17.8513 20.0939 17.5249 20.7928 17.4124 21.7154L16.4038 30.7281C16.3027 31.8965 16.9221 32.7266 18.0372 32.7266C19.8117 32.7266 29.6637 32.7266 31.082 32.7266C32.3262 32.7266 32.7357 31.7187 32.7267 31.0511C32.7267 31.0504 32.7267 31.0498 32.7267 31.0491C32.7287 30.9282 32.7232 30.8184 32.7154 30.7281Z" fill="#F6DBE3"/>
<path d="M17.8747 31.052C17.8747 31.0513 17.8747 31.0506 17.8747 31.0499C17.8726 30.9291 17.8781 30.8193 17.8859 30.7289L18.8945 21.1829C19.0023 20.2988 19.3035 19.6003 20.1526 19.0615C19.9034 19.137 19.3351 19.2038 18.7175 19.5737L18.6962 19.579C17.8517 20.0947 17.5253 20.7937 17.4129 21.7163L16.4043 30.7289C16.3032 31.8973 16.9226 32.7274 18.0377 32.7274C18.9549 32.7274 18.6021 32.7274 19.5194 32.7274C18.2751 32.7274 17.8656 31.7196 17.8747 31.052Z" fill="#D8A373"/>
<path d="M32.1644 25.8078C31.6888 21.5859 31.7094 21.6349 31.6338 21.2693C31.4809 20.5298 31.0328 19.9503 30.4232 19.5781C30.4172 19.5766 30.3958 19.5713 30.4019 19.5728C30.14 19.416 29.848 19.2923 29.5345 19.202L26.5172 18.4508C26.4191 18.4064 26.3512 18.2604 26.3512 18.0938V16.6385V16.6309C25.2048 17.1373 23.8861 17.1251 22.7674 16.6309V16.6385V18.0938C22.7674 18.2604 22.6995 18.4064 22.6014 18.4508C20.0489 19.1308 19.4812 19.1149 18.7167 19.5728C18.7107 19.5743 18.6893 19.5796 18.6954 19.5781C17.8586 20.089 17.5244 20.7942 17.4121 21.7154L16.9541 25.8077L19.8408 26.1106C19.9943 26.1267 20.1084 26.26 20.1007 26.4142L19.7835 32.7266C23.317 32.7266 25.8204 32.7266 29.3524 32.7266L29.0199 26.4386C29.0111 26.2709 29.1351 26.1256 29.3022 26.1081L32.1644 25.8078Z" fill="#415A6B"/>
<path d="M16.9541 25.8086L18.3892 25.9592L18.8938 21.1829C19.0016 20.299 19.3027 19.6004 20.1519 19.0615C19.7931 19.1577 19.2709 19.2418 18.7168 19.5738C18.7108 19.5753 18.6894 19.5806 18.6954 19.5791C18.0779 19.956 17.6363 20.5376 17.4848 21.2702C17.3918 21.7194 17.4094 21.8174 16.9541 25.8086Z" fill="#A82626"/>
<path d="M17.2932 19.579C17.2871 19.5775 17.2657 19.5722 17.2718 19.5737C16.5469 19.1395 15.9282 19.1191 14.6049 18.7549L14.6062 18.7526L13.2318 18.0947L13.2219 18.1097C13.2218 18.1079 13.2217 18.1061 13.2216 18.1043L11.4292 19.7919L9.64197 18.1015L8.27347 18.7526C6.93805 19.1201 6.32197 19.1397 5.59728 19.5738L5.57588 19.5791C4.73141 20.0947 4.4051 20.7939 4.29258 21.7164L3.83447 25.8098L6.66594 26.1068C6.84445 26.1256 6.97717 26.2806 6.96819 26.4599L6.65351 32.7275C9.56264 32.7275 13.1373 32.7275 16.2223 32.7275L15.8899 26.4403C15.881 26.2721 16.0054 26.1265 16.1729 26.1089L16.9297 26.0295C17.4847 21.4258 17.3224 21.0126 17.9947 20.1898C17.8472 20.0092 17.454 19.6772 17.2932 19.579Z" fill="#C7C7D7"/>
<path d="M5.77478 21.0641C5.86976 20.2855 6.1058 19.6494 6.78499 19.123C6.65043 19.1612 6.14458 19.246 5.59776 19.5736L5.57636 19.5788C5.37599 19.7012 5.07764 19.9412 4.87491 20.1895C4.15753 21.0677 4.35261 21.7603 3.83496 25.8096L5.29948 25.9632C5.2951 26.0098 5.35821 25.3792 5.77478 21.0641Z" fill="#8D8DA8"/>
<path d="M27.7258 18.7527L26.5174 18.4519C26.4193 18.4075 26.3514 18.2614 26.3514 18.0949V16.4617V16.4541C25.1954 16.9648 23.8751 16.9434 22.7675 16.4541V16.4617V18.0949C22.7675 18.2614 22.6997 18.4075 22.6016 18.4519L21.375 18.7573C22.8492 21.2367 26.2528 21.2376 27.7258 18.7527Z" fill="#F6DBE3"/>
<path d="M5.81152 10.4347V8.88986C5.81152 4.34253 10.9523 1.71162 14.6406 4.28098C17.5336 6.30088 16.9826 9.27122 17.0462 10.4347" fill="#4C4846"/>
<path d="M5.81152 10.4347V8.88986C5.81152 4.34253 10.9523 1.71162 14.6406 4.28098C17.5336 6.30088 16.9826 9.27122 17.0462 10.4347" fill="#4C4846"/>
<path d="M11.9889 3.30025C8.72209 2.97591 5.81152 5.53008 5.81152 8.8896V10.4345H6.93167V8.8896C6.93167 6.00164 9.1245 3.58485 11.9889 3.30025Z" fill="#3F3B39"/>
<path d="M17.3259 10.9377C17.3259 11.585 16.6993 12.1098 15.9263 12.1098V9.76562C16.6993 9.76562 17.3259 10.2903 17.3259 10.9377Z" fill="#F6DBE3"/>
<path d="M5.53223 10.9377C5.53223 11.585 6.15889 12.1098 6.93196 12.1098V9.76562C6.15889 9.76562 5.53223 10.2903 5.53223 10.9377Z" fill="#F6DBE3"/>
<path d="M15.9268 11.0555V12.109C16.6998 12.109 17.3264 11.5843 17.3264 10.9369C17.3264 10.7474 17.2724 10.5685 17.177 10.4102C16.9466 10.7928 16.4735 11.0555 15.9268 11.0555Z" fill="#E3CED4"/>
<path d="M5.68157 10.4102C5.21714 11.1815 5.88344 12.109 6.93191 12.109V11.0555C6.38515 11.0555 5.91197 10.7928 5.68157 10.4102Z" fill="#E3CED4"/>
<path d="M14.8903 8.13674C14.8739 7.68755 14.504 7.44144 14.1472 7.49701C14.0638 7.50996 13.9717 7.52348 13.9126 7.53182C12.1396 7.78351 10.4541 7.76763 8.71144 7.49701C8.35729 7.44184 7.98445 7.68398 7.96834 8.13679C7.94401 8.80413 7.6666 9.30032 7.24393 9.60936C7.06784 9.73823 6.93794 9.7823 6.93201 9.78558C6.93201 12.6967 6.89726 12.8912 7.05323 13.5507C7.20257 14.1803 7.47871 14.7431 7.83994 15.2206C9.93244 17.9879 14.3134 17.4476 15.6124 14.1651C16.0424 13.0789 15.9266 12.2543 15.9266 9.78558C15.9098 9.77303 14.9368 9.42798 14.8903 8.13674Z" fill="#F6DBE3"/>
<path d="M8.58094 14.2936C8.26338 13.1617 8.43959 12.4702 8.38995 10.3248C8.38995 10.1039 8.50086 9.91614 8.63623 9.82018C9.17016 9.44037 9.41252 8.81934 9.42766 8.15644C9.43289 7.9334 9.53736 7.74194 9.69154 7.62188C9.47753 7.60048 9.2698 7.5758 9.07782 7.55002C8.9661 7.53507 8.83856 7.51677 8.7113 7.49698C8.35813 7.44199 7.98443 7.68326 7.9682 8.13676C7.94381 8.80295 7.66692 9.29994 7.2438 9.60933C7.06764 9.73826 6.9378 9.78226 6.93187 9.78554C6.93187 12.7144 6.93015 12.5631 6.93607 12.7073C7.02691 14.762 8.49321 16.4331 10.3233 16.8697C10.2382 16.8061 8.93785 15.5673 8.58094 14.2936Z" fill="#E3CED4"/>
<path d="M11.8739 23.0217V19.373L11.4294 19.7916L10.9849 19.3711V23.0217C10.9849 23.2672 11.1839 23.4662 11.4294 23.4662C11.6749 23.4662 11.8739 23.2672 11.8739 23.0217Z" fill="#8D8DA8"/>
<path d="M13.2319 18.0947L11.4292 19.7919L12.4023 20.7726C12.5881 20.9598 12.8961 20.9416 13.0585 20.7337L14.6062 18.7526L13.2319 18.0947Z" fill="#DADADA"/>
<path d="M13.9239 18.426L13.2319 18.0947L11.4292 19.7919L12.0732 20.4409L13.9239 18.426Z" fill="#CECCCA"/>
<path d="M12.5347 20.8633C12.6161 20.8996 12.7058 20.91 12.7916 20.8945L12.5347 20.8633Z" fill="#CECCCA"/>
<path d="M9.6418 18.1016L11.429 19.792L10.4559 20.7726C10.2701 20.9599 9.96212 20.9417 9.79966 20.7337L8.25195 18.7526L9.6418 18.1016Z" fill="#DADADA"/>
<path d="M10.1696 19.7854L10.7856 20.4409L11.4295 19.792L9.64236 18.1016L8.90967 18.4448L10.1696 19.7854Z" fill="#CECCCA"/>
<path d="M24.2567 19.0005V16.8181C23.7251 16.7817 23.2209 16.6544 22.7675 16.4541C22.7225 17.75 22.885 18.3236 22.6016 18.452L21.375 18.7573C21.6804 19.2709 22.0932 19.7051 22.5799 20.0245L23.8533 19.5563C23.8534 19.5562 24.2567 19.356 24.2567 19.0005Z" fill="#E3CED4"/>
<path d="M28.6129 11.0395C28.866 11.0513 29.0654 11.2596 29.0654 11.513V11.853C29.0642 12.4569 29.1063 13.0433 28.8744 13.8116C28.6409 14.586 28.2009 15.2974 27.5397 15.8857C24.7499 18.3701 20.267 16.4946 20.0771 12.7405C20.0763 12.7235 20.0769 12.7453 20.0746 12.6878C20.0723 12.629 20.0708 12.57 20.0708 12.5106C20.0708 11.975 20.0708 10.7526 20.0708 10.2293V10.0015C20.0708 9.7369 20.2573 9.51063 20.5161 9.45587C20.9754 9.35876 21.7176 9.09487 22.3909 8.37829C22.5601 8.19823 22.8487 8.2076 23.006 8.39814C23.6593 9.18974 25.4234 10.8904 28.6129 11.0395Z" fill="#F6DBE3"/>
<path d="M22.0177 14.5046C21.4238 13.3045 21.5617 12.4539 21.5525 10.7859C21.5525 10.207 21.5525 9.6297 21.5525 9.0498C21.1568 9.28193 20.7872 9.39826 20.5161 9.45556C20.2572 9.51032 20.0708 9.73659 20.0708 10.0012C20.0708 10.5812 20.0708 11.8694 20.0708 12.5102C20.0708 12.5846 20.0747 12.7003 20.075 12.7072C20.0752 12.7131 20.0813 12.8168 20.0855 12.869C20.293 15.5089 22.727 17.3733 25.3089 16.9455C23.8895 16.7103 22.6626 15.8036 22.0177 14.5046Z" fill="#E3CED4"/>
<path d="M28.5925 18.9677L27.7256 18.752C27.0617 19.8719 25.8875 20.6168 24.5488 20.6168C24.5488 20.6168 28.6105 24.6789 28.5925 18.9677Z" fill="#8D8DA8"/>
<path d="M20.5245 18.9687L21.3914 18.7529C22.0553 19.8729 23.2295 20.6178 24.5682 20.6178C24.5682 20.6177 20.5065 24.6799 20.5245 18.9687Z" fill="#8D8DA8"/>
<path d="M22.6363 20.0493C21.9197 20.4308 21.0939 20.6129 20.5649 19.9053C20.9858 24.2009 24.5684 20.6181 24.5684 20.6181C23.8615 20.6181 23.2006 20.4102 22.6363 20.0493Z" fill="#8D8DA8"/>
<path d="M26.4819 20.0483C27.1985 20.4298 28.0243 20.6119 28.5533 19.9043C28.1324 24.1999 24.5498 20.6171 24.5498 20.6171C25.2567 20.6171 25.9176 20.4092 26.4819 20.0483Z" fill="#8D8DA8"/>
<path d="M21.0724 19.2237C19.3687 17.0759 16.0785 17.3089 14.6634 19.5983C13.8352 20.9362 14.1477 22.1552 14.079 22.5281H21.9199C21.8951 21.7622 22.1063 20.5258 21.0724 19.2237Z" fill="#7F7369"/>
<path d="M15.1432 20.752C15.1608 20.6777 15.2022 20.5309 15.204 20.5247C15.641 19.0754 16.905 17.9604 18.479 17.7686C16.9208 17.5787 15.4505 18.3251 14.6638 19.5986C13.8357 20.9365 14.1482 22.1552 14.0795 22.5284H15.0375C15.0386 21.7105 15.0071 21.329 15.1432 20.752Z" fill="#595149"/>
<path d="M23.0873 25.81C22.7429 24.7414 22.2963 24.0744 21.9559 23.7266C21.7594 23.9202 21.4868 24.0579 21.1768 24.1073C21.7455 24.9274 21.6209 25.7458 21.5925 26.2328C21.5796 26.455 21.7795 26.6294 21.9974 26.5842L22.7233 26.4336C23.0057 26.3751 23.1758 26.0844 23.0873 25.81Z" fill="#595149"/>
<path d="M22.338 23.0503C22.338 23.678 21.7304 24.1867 20.981 24.1867V21.9141C21.7304 21.9141 22.338 22.4227 22.338 23.0503Z" fill="#EFD0A3"/>
<path d="M12.9121 25.81C13.2566 24.7414 13.7032 24.0744 14.0436 23.7266C14.2401 23.9202 14.5127 24.0579 14.8227 24.1073C14.254 24.9274 14.3786 25.7458 14.407 26.2328C14.4199 26.455 14.2199 26.6294 14.002 26.5842L13.2761 26.4336C12.9938 26.3751 12.8237 26.0844 12.9121 25.81Z" fill="#7F7369"/>
<path d="M13.6616 23.0503C13.6616 23.678 14.2692 24.1867 15.0187 24.1867V21.9141C14.2692 21.9141 13.6616 22.4227 13.6616 23.0503Z" fill="#EFD0A3"/>
<path d="M20.9805 23.2141V24.1875C21.9861 24.1875 22.6292 23.3092 22.2069 22.5645C21.9892 22.9485 21.522 23.2141 20.9805 23.2141Z" fill="#E2BF91"/>
<path d="M13.7918 22.5645C13.3688 23.3105 14.0154 24.1875 15.0182 24.1875V23.2141C14.4768 23.2141 14.0095 22.9485 13.7918 22.5645Z" fill="#E2BF91"/>
<path d="M23.0408 32.728L22.7316 29.9652C22.6611 29.3866 22.4576 28.9007 21.8809 28.5485L21.8668 28.545C21.3622 28.2427 20.996 28.2553 19.2918 27.8013C19.1034 27.7159 19.2128 27.3504 19.1818 26.4221C18.4204 26.7553 17.5391 26.7414 16.8062 26.417C16.7761 27.3238 16.8854 27.7155 16.6962 27.8013C14.9953 28.2544 14.6265 28.2423 14.1213 28.545L14.1071 28.5485C13.7006 28.7968 13.4057 29.1805 13.3046 29.6695C13.2443 29.961 13.2601 29.9847 12.9473 32.728H23.0408Z" fill="#EFD0A3"/>
<path d="M12.9473 32.7268C15.395 32.7268 20.5916 32.7268 23.0409 32.7268L22.7317 29.9639C22.6613 29.3861 22.4569 28.8988 21.881 28.5472L21.8669 28.5437C21.3665 28.244 20.9632 28.2432 19.6122 27.8797C19.6122 27.8924 19.6122 28.2433 19.6122 28.2372C19.6122 28.4933 19.552 28.7372 19.4454 28.9522C19.4278 28.9878 19.3992 29.0405 19.3719 29.0845C19.3706 29.0866 19.353 29.1144 19.3516 29.1164C19.3234 29.1597 19.2932 29.2014 19.2636 29.2386C19.2496 29.2562 19.2307 29.279 19.2158 29.2958C19.2134 29.2985 19.211 29.3012 19.2086 29.3039C19.1991 29.3148 19.1895 29.3255 19.1797 29.3361C19.1786 29.3372 19.1775 29.3383 19.1765 29.3395C19.1763 29.3397 19.1761 29.3399 19.1759 29.3401C19.1744 29.3417 19.1729 29.3433 19.1715 29.3449C19.1601 29.3569 19.1484 29.3686 19.1367 29.3802C19.1328 29.3841 19.1291 29.3881 19.1252 29.3919C19.11 29.4067 19.0945 29.4211 19.0788 29.4354C19.0743 29.4394 19.0697 29.4432 19.0652 29.4473C19.0554 29.4561 19.0451 29.4644 19.0352 29.4731C19.0336 29.4745 19.0321 29.4758 19.0305 29.4771C19.0245 29.4821 19.0183 29.487 19.0122 29.492C19.0016 29.5004 18.9911 29.5089 18.9804 29.517C18.9737 29.5222 18.9668 29.5273 18.96 29.5324C18.9495 29.5402 18.939 29.5478 18.9283 29.5554C18.9231 29.559 18.9178 29.5627 18.9125 29.5663C18.9107 29.5676 18.909 29.5688 18.9072 29.57C18.8962 29.5775 18.8851 29.5849 18.8739 29.5921C18.8721 29.5932 18.8705 29.5943 18.8687 29.5954C18.8636 29.5987 18.8585 29.6021 18.8533 29.6053C18.8438 29.6112 18.8342 29.6169 18.8246 29.6226C18.8213 29.6245 18.8182 29.6265 18.8149 29.6284C18.8136 29.6292 18.8121 29.63 18.8107 29.6308C18.8065 29.6334 18.8024 29.6359 18.7981 29.6383C18.7796 29.6489 18.7609 29.6591 18.7419 29.669C18.7393 29.6703 18.7367 29.6716 18.7341 29.6728C18.7332 29.6732 18.7323 29.6737 18.7315 29.6742C18.7283 29.6758 18.7251 29.6773 18.722 29.6788C18.7094 29.6851 18.6968 29.6915 18.684 29.6975C18.6771 29.7007 18.6701 29.7038 18.6632 29.7069C18.6505 29.7126 18.6376 29.7183 18.6247 29.7238C18.6169 29.7271 18.609 29.7303 18.6011 29.7334C18.5887 29.7384 18.5763 29.7433 18.5638 29.7479C18.5557 29.751 18.5475 29.754 18.5394 29.7568C18.5267 29.7614 18.5138 29.7657 18.5009 29.7699C18.4946 29.772 18.4882 29.774 18.4818 29.7761C18.4802 29.7766 18.4786 29.7771 18.477 29.7777C18.4734 29.7787 18.4698 29.7797 18.4662 29.7808C18.4557 29.784 18.4451 29.7871 18.4346 29.79C18.4294 29.7915 18.4243 29.793 18.419 29.7944C18.4173 29.7949 18.4156 29.7954 18.4138 29.7958C18.3927 29.8015 18.3713 29.8067 18.3498 29.8115C18.3467 29.8122 18.3434 29.8128 18.3403 29.8135C18.3307 29.8156 18.3212 29.8176 18.3116 29.8195C18.2861 29.8245 18.2603 29.8289 18.2343 29.8327C18.1824 29.8402 18.1296 29.8453 18.0762 29.8478C18.0698 29.8481 18.0634 29.8482 18.0571 29.8484C18.0537 29.8485 18.0503 29.8486 18.0468 29.8488C18.0375 29.849 18.0282 29.8492 18.019 29.8493C18.0164 29.8493 18.0138 29.8493 18.0113 29.8494C18.0106 29.8494 18.01 29.8494 18.0094 29.8494C18.0061 29.8494 18.0029 29.8495 17.9997 29.8495C17.9965 29.8495 17.9933 29.8494 17.99 29.8494C17.9894 29.8494 17.9888 29.8494 17.9881 29.8494C17.9855 29.8494 17.983 29.8494 17.9804 29.8493C17.9711 29.8492 17.9618 29.849 17.9525 29.8488C17.9491 29.8486 17.9457 29.8485 17.9422 29.8484C17.9359 29.8482 17.9295 29.8481 17.9232 29.8478C17.8697 29.8453 17.817 29.8402 17.765 29.8327C17.739 29.8289 17.7133 29.8245 17.6877 29.8195C17.6781 29.8176 17.6686 29.8156 17.6591 29.8135C17.6559 29.8128 17.6527 29.8122 17.6495 29.8115C17.628 29.8067 17.6067 29.8014 17.5855 29.7958C17.5838 29.7954 17.582 29.7949 17.5803 29.7944C17.5751 29.793 17.57 29.7915 17.5648 29.79C17.5543 29.7871 17.5439 29.784 17.5335 29.7809C17.5298 29.7798 17.526 29.7788 17.5223 29.7777C17.5207 29.7771 17.5192 29.7766 17.5175 29.7761C17.5112 29.7741 17.5048 29.772 17.4984 29.7699C17.4855 29.7657 17.4727 29.7614 17.46 29.7568C17.4518 29.754 17.4436 29.751 17.4355 29.7479C17.423 29.7433 17.4105 29.7384 17.3982 29.7334C17.3903 29.7303 17.3825 29.7271 17.3746 29.7238C17.3617 29.7183 17.3489 29.7126 17.3361 29.7069C17.3292 29.7038 17.3222 29.7007 17.3153 29.6975C17.3026 29.6915 17.29 29.6852 17.2774 29.6788C17.2742 29.6773 17.271 29.6758 17.2679 29.6742C17.267 29.6737 17.2661 29.6733 17.2653 29.6728C17.2627 29.6716 17.26 29.6703 17.2575 29.669C17.2385 29.6591 17.2197 29.6489 17.2012 29.6383C17.197 29.6359 17.1928 29.6334 17.1886 29.6308C17.1872 29.63 17.1858 29.6292 17.1844 29.6284C17.1812 29.6265 17.178 29.6245 17.1748 29.6226C17.1652 29.6169 17.1556 29.6112 17.1461 29.6053C17.1409 29.6021 17.1358 29.5987 17.1307 29.5954C17.1289 29.5943 17.1272 29.5932 17.1255 29.5921C16.8033 29.3838 16.5657 29.0686 16.4557 28.7037C16.3573 28.3776 16.3958 28.1453 16.3872 27.877L16.0449 27.9622C14.9712 28.2552 14.6004 28.2566 14.121 28.5438L14.1069 28.5473C13.7056 28.7924 13.4061 29.1768 13.3044 29.6682C13.2442 29.959 13.2562 30.0159 12.9473 32.7268Z" fill="#2967F0"/>
<path d="M14.0554 30.9852C14.179 29.8708 14.0922 28.9357 15.0298 28.3338L15.044 28.3301C15.1479 28.2646 15.2598 28.2085 15.3769 28.1596C15.3983 28.1427 15.4192 28.1273 15.4392 28.1133C14.9649 28.2488 14.5711 28.2746 14.1213 28.5441L14.1071 28.5476C13.6975 28.7977 13.4029 29.1836 13.3024 29.6807C13.243 29.973 13.2565 30.0135 12.9473 32.7271H13.87L14.0554 30.9852Z" fill="#7989DC"/>
<path d="M15.5399 32.7267L15.5812 31.4404C15.5891 31.1949 15.3966 30.9897 15.1512 30.9818C14.9058 30.9722 14.7005 31.1663 14.6926 31.4118L14.6504 32.7267H15.5399Z" fill="#7989DC"/>
<path d="M21.3495 32.7267L21.3073 31.4117C21.2994 31.1664 21.096 30.9729 20.8487 30.9817C20.6034 30.9896 20.4108 31.1949 20.4187 31.4403L20.46 32.7267H21.3495Z" fill="#7989DC"/>
<path d="M17.6316 28.7359C17.639 28.7249 17.9792 28.6243 17.995 28.1934V26.665C17.5616 26.6628 17.1603 26.5726 16.8065 26.416C16.7764 27.3231 16.8857 27.7146 16.6965 27.8003L16.3877 27.8771C16.3963 28.145 16.3578 28.3771 16.4562 28.7039C16.4981 28.8429 16.5643 28.9842 16.6296 29.0872L17.6316 28.7359Z" fill="#E2BF91"/>
<path d="M17.7948 20.9249C17.1258 22.0378 15.7056 21.8665 15.2014 21.7647C15.107 21.7456 15.0191 21.8181 15.0191 21.9144C15.0191 23.7251 14.9638 24.1233 15.1458 24.7248C15.5148 25.9485 16.6446 26.8284 17.9646 26.843C19.6097 26.8636 20.9813 25.5391 20.9813 23.8625C20.9813 23.1045 20.9813 22.5707 20.9813 21.9144C20.9813 21.8182 20.8934 21.7457 20.7991 21.7647C20.2948 21.8666 18.8747 22.0378 18.2057 20.925C18.1124 20.7698 17.888 20.7698 17.7948 20.9249Z" fill="#FCE3BB"/>
<path d="M16.5445 24.3754C16.4667 23.9267 16.5167 23.7534 16.5006 21.7884C15.976 21.8894 15.464 21.8179 15.2011 21.7648C15.1067 21.7457 15.0188 21.8182 15.0188 21.9145C15.0188 23.7527 14.9647 24.1269 15.1455 24.7249C15.5944 26.2135 17.1554 27.1581 18.7408 26.7502C17.6147 26.4607 16.7463 25.5365 16.5445 24.3754Z" fill="#EFD0A3"/>
</svg>
