<svg width="36" height="36" viewBox="0 0 36 36" fill="none" xmlns="http://www.w3.org/2000/svg">
<path d="M8.83714 17.0274L6.28901 9.6868C6.18123 9.25689 5.91503 8.88356 5.5437 8.64157C5.17237 8.39958 4.72334 8.3068 4.28651 8.3818C4.06251 8.42956 3.85053 8.52231 3.66345 8.65444C3.47636 8.78657 3.31805 8.95531 3.19813 9.15045C3.07821 9.34559 2.99917 9.56305 2.9658 9.78964C2.93243 10.0162 2.94543 10.2473 3.00401 10.4687L5.62526 18.5631L8.83714 17.0274Z" fill="#E3CED4"/>
<path d="M27.1631 17.0274L29.7112 9.6868C29.819 9.25689 30.0852 8.88356 30.4565 8.64157C30.8279 8.39958 31.2769 8.3068 31.7137 8.3818C31.9377 8.42956 32.1497 8.52231 32.3368 8.65444C32.5239 8.78657 32.6822 8.95531 32.8021 9.15045C32.922 9.34559 33.0011 9.56305 33.0344 9.78964C33.0678 10.0162 33.0548 10.2473 32.9962 10.4687L30.375 18.5631L27.1631 17.0274Z" fill="#E3CED4"/>
<path d="M14.0886 20.0717L9.11614 17.1568C8.77205 16.9581 8.36878 16.8874 7.97762 16.9573C7.58646 17.0272 7.23261 17.2331 6.97864 17.5387L5.16401 11.9368C5.05623 11.5069 4.79003 11.1336 4.4187 10.8916C4.04737 10.6496 3.59834 10.5568 3.16151 10.6318C2.93751 10.6796 2.72553 10.7723 2.53845 10.9044C2.35136 11.0366 2.19305 11.2053 2.07313 11.4005C1.95321 11.5956 1.87417 11.813 1.8408 12.0396C1.80743 12.2662 1.82043 12.4973 1.87901 12.7187L4.32589 21.8481C4.43813 22.275 4.67509 22.6589 5.00651 22.9506L8.80901 26.3312C9.04626 26.5424 9.23608 26.8015 9.366 27.0914C9.49591 27.3813 9.56297 27.6954 9.56276 28.0131V29.8131H16.3128V23.9541C16.3128 23.1692 16.1076 22.3979 15.7174 21.7168C15.3273 21.0358 14.7657 20.4686 14.0886 20.0717Z" fill="#F6DBE3"/>
<path d="M32.8387 10.6318C32.4019 10.5568 31.9529 10.6496 31.5816 10.8916C31.2102 11.1336 30.944 11.5069 30.8362 11.9368L29.0194 17.5387C28.7654 17.2331 28.4116 17.0272 28.0204 16.9573C27.6292 16.8874 27.226 16.9581 26.8819 17.1568L21.9094 20.0717C21.2327 20.4689 20.6716 21.0362 20.2819 21.7172C19.8921 22.3983 19.6872 23.1694 19.6875 23.9541V29.8131H26.4375V28.0131C26.4373 27.6954 26.5043 27.3813 26.6343 27.0914C26.7642 26.8015 26.954 26.5424 27.1912 26.3312L30.9937 22.9506C31.3252 22.6589 31.5621 22.275 31.6744 21.8481L34.1212 12.7187C34.1798 12.4973 34.1928 12.2662 34.1595 12.0396C34.1261 11.813 34.0471 11.5956 33.9271 11.4005C33.8072 11.2053 33.6489 11.0366 33.4618 10.9044C33.2747 10.7723 33.0628 10.6796 32.8387 10.6318Z" fill="#F6DBE3"/>
<path d="M19.125 29.8125V34.3125H27V29.8125H26.4375H19.6875H19.125Z" fill="#C7C7D7"/>
<path d="M16.875 29.8125H16.3125H9.5625H9V34.3125H16.875V29.8125Z" fill="#C7C7D7"/>
<path d="M25.5602 10.4404L25.1608 10.8397L18.0002 18.0004L10.8396 10.8397L10.4402 10.4404C9.95373 9.97393 9.56529 9.41507 9.29765 8.79654C9.03001 8.17802 8.88857 7.51228 8.88162 6.83837C8.87466 6.16447 9.00234 5.49595 9.25715 4.87204C9.51196 4.24812 9.88879 3.68136 10.3655 3.205C10.8423 2.72864 11.4093 2.35226 12.0334 2.09793C12.6576 1.84361 13.3262 1.71646 14.0001 1.72395C14.674 1.73143 15.3396 1.87339 15.9579 2.14152C16.5762 2.40964 17.1348 2.79852 17.6008 3.28535L18.0002 3.68473L18.3996 3.28535C18.8656 2.79852 19.4242 2.40964 20.0425 2.14152C20.6608 1.87339 21.3264 1.73143 22.0003 1.72395C22.6742 1.71646 23.3428 1.84361 23.967 2.09793C24.5911 2.35226 25.1581 2.72864 25.6349 3.205C26.1116 3.68136 26.4884 4.24812 26.7432 4.87204C26.9981 5.49595 27.1257 6.16447 27.1188 6.83837C27.1118 7.51228 26.9704 8.17802 26.7027 8.79654C26.4351 9.41507 26.0467 9.97393 25.5602 10.4404Z" fill="#2967F0"/>
<path d="M25.56 3.28587C25.0248 2.74501 24.3734 2.33325 23.6553 2.08188C22.9371 1.83051 22.1711 1.74614 21.4155 1.83518C22.3629 1.94017 23.2613 2.31066 24.0073 2.90395C24.7533 3.49724 25.3165 4.28921 25.6321 5.18862C25.9476 6.08803 26.0027 7.05829 25.7909 7.98762C25.5791 8.91695 25.1091 9.76755 24.435 10.4414L24.0356 10.8408L17.4375 17.4384L18 18.0009L25.1606 10.8402L25.56 10.4409C26.508 9.49165 27.0405 8.20493 27.0405 6.86337C27.0405 5.5218 26.508 4.23509 25.56 3.28587Z" fill="#2967F0" fill-opacity="0.8"/>
<path d="M19.125 12.375V10.125H21.375V7.875H19.125V5.625H16.875V7.875H14.625V10.125H16.875V12.375H19.125Z" fill="#F1F2F2"/>
<path d="M28.5719 18.9558L24.8121 21.0371C24.7047 21.0993 24.625 21.2002 24.5894 21.3191C24.5537 21.4381 24.5648 21.5662 24.6203 21.6772C24.65 21.7366 24.6915 21.7893 24.7424 21.8321C24.7932 21.8748 24.8522 21.9067 24.9158 21.9258C24.9794 21.9448 25.0462 21.9507 25.1122 21.943C25.1781 21.9352 25.2418 21.9141 25.2993 21.8808L28.5719 20.0808C28.9136 19.8828 29.1749 19.5711 29.3105 19.2002C29.4461 18.8292 29.4473 18.4225 29.3138 18.0508C29.1837 18.432 28.9202 18.7534 28.5719 18.9558Z" fill="#E3CED4"/>
<path d="M7.42857 18.9558L11.1883 21.0371C11.2958 21.0993 11.3755 21.2002 11.4111 21.3191C11.4467 21.4381 11.4357 21.5662 11.3801 21.6772C11.3505 21.7366 11.3089 21.7893 11.2581 21.8321C11.2073 21.8748 11.1483 21.9067 11.0847 21.9258C11.0211 21.9448 10.9542 21.9507 10.8883 21.943C10.8223 21.9352 10.7587 21.9141 10.7012 21.8808L7.42857 20.0808C7.08689 19.8828 6.82551 19.5711 6.68994 19.2002C6.55437 18.8292 6.5532 18.4225 6.68663 18.0508C6.81678 18.432 7.08026 18.7534 7.42857 18.9558Z" fill="#E3CED4"/>
</svg>
