<svg width="32" height="32" viewBox="0 0 32 32" fill="none" xmlns="http://www.w3.org/2000/svg">
<g clip-path="url(#clip0_427_6305)">
<path d="M27.4545 4.79541H23.875V14.1022H27.4545V4.79541Z" fill="#7989DC"/>
<path d="M28.0804 1.8125H23.1466C22.7512 1.8125 22.4307 2.13302 22.4307 2.52841V4.50911C22.4307 4.9045 22.7512 5.22502 23.1466 5.22502H28.0804C28.4758 5.22502 28.7963 4.9045 28.7963 4.50911V2.52841C28.7963 2.13302 28.4758 1.8125 28.0804 1.8125Z" fill="#2967F0"/>
<path d="M3.00635 17.4968V31.9999H28.7313V17.4968C23.6782 12.4437 20.8563 9.6218 15.8688 4.63428C10.8813 9.68738 8.05945 12.5093 3.00635 17.4968Z" fill="#DEDEE7"/>
<rect x="1.68164" y="31.2842" width="27.2045" height="2.14773" rx="1.07386" fill="#C7C7D7"/>
<path d="M28.9044 17.6579C23.8513 12.6048 21.0294 9.78293 16.0419 4.79541C13.4825 7.28914 11.5137 9.25789 9.545 11.2266C7.57625 13.1954 5.6075 15.1641 3.11377 17.6579V21.0047C8.16687 15.9516 10.9888 12.736 15.9763 7.74847C21.0294 12.8016 23.8513 15.6235 28.8388 20.611V21.0047V17.6579L28.9044 17.6579Z" fill="#C7C7D7"/>
<path d="M13.6006 31.0771H5.84863V24.0628C5.84863 22.0673 7.62239 20.4951 9.72461 20.4951C11.8925 20.4951 13.6006 22.1278 13.6006 24.0628V31.0771Z" fill="#9FA8B0"/>
<path d="M25.9744 20.5156H15.8682V29.375H25.9744V20.5156Z" fill="#9FA8B0"/>
<path d="M20.3961 21.5654H16.918V28.3248H20.3961V21.5654Z" fill="white"/>
<path d="M24.9239 21.5654H21.4458V28.3248H24.9239V21.5654Z" fill="white"/>
<path d="M2.03955 17.6815C2.59145 17.4056 10.7218 8.57619 15.4764 3.55683C15.7605 3.25692 16.2373 3.2616 16.5181 3.56458L29.602 17.6815" stroke="#2967F0" stroke-width="3.57955" stroke-linecap="round"/>
</g>
<defs>
<clipPath id="clip0_427_6305">
<rect width="31.5" height="31.5" fill="white" transform="translate(0.25 0.5)"/>
</clipPath>
</defs>
</svg>
