<svg width="42" height="42" viewBox="0 0 42 42" fill="none" xmlns="http://www.w3.org/2000/svg">
<path d="M0 9.14286C0 4.0934 4.0934 0 9.14286 0H32.8571C37.9066 0 42 4.0934 42 9.14286V32.8571C42 37.9066 37.9066 42 32.8571 42H9.14286C4.0934 42 0 37.9066 0 32.8571V9.14286Z" fill="#FBFBFF"/>
<g clip-path="url(#clip0_427_2285)">
<path d="M20.1973 17.7113V16.5959C20.1973 15.9799 20.6967 15.4805 21.3127 15.4805H31.3514C31.9675 15.4805 32.4669 15.9799 32.4669 16.5959V17.7113" stroke="#415A6B" stroke-width="1.94299"/>
<rect x="7.92725" y="31.0957" width="2.23084" height="4.46167" rx="1.11542" fill="#415A6B"/>
<rect x="38.0439" y="17.7109" width="17.8467" height="25.6546" rx="3.34625" transform="rotate(90 38.0439 17.7109)" fill="#ABABBB"/>
<rect x="14.6201" y="31.0957" width="2.23084" height="4.46167" rx="1.11542" fill="#415A6B"/>
<rect x="3.46582" y="9.9043" width="17.8467" height="22.3084" rx="3.34625" fill="#C7C7D7"/>
<rect x="6.81201" y="13.25" width="11.1542" height="2.23084" rx="1.11542" fill="#7989DC"/>
<rect x="30.8902" y="20.6028" width="4.70268" height="2.28668" rx="1.14334" transform="rotate(29.0292 30.8902 20.6028)" fill="white" stroke="#2967F0" stroke-width="0.971493"/>
<rect x="29.1206" y="28.8662" width="3.34625" height="3.34625" rx="1.67313" fill="#2967F0"/>
<rect x="7.1626" y="17.4883" width="11.186" height="1.72093" rx="0.860465" fill="#2967F0"/>
<path d="M7.92725 9.90308V6.55682C7.92725 5.9408 8.42664 5.44141 9.04266 5.44141H15.7352C16.3512 5.44141 16.8506 5.9408 16.8506 6.55682V9.90308" stroke="#2967F0" stroke-width="1.94299"/>
<rect x="7.92725" y="33.3271" width="2.23084" height="2.23084" rx="1.11542" fill="#C7C7D7"/>
<rect x="14.6201" y="33.3271" width="2.23084" height="2.23084" rx="1.11542" fill="#C7C7D7"/>
</g>
<defs>
<clipPath id="clip0_427_2285">
<rect width="36" height="36" fill="white" transform="translate(2 2)"/>
</clipPath>
</defs>
</svg>
