<svg width="36" height="36" viewBox="0 0 36 36" fill="none" xmlns="http://www.w3.org/2000/svg">
<g clip-path="url(#clip0_427_2325)">
<rect x="35.1816" y="24.5459" width="0.818182" height="3.27273" fill="#DEDEE7"/>
<path d="M24.6243 23.6318H5.57474C4.92805 23.6318 4.39893 24.1507 4.39893 24.7848V25.6165H25.8001V24.7848C25.8001 24.1507 25.271 23.6318 24.6243 23.6318Z" fill="#DEDEE7"/>
<path d="M12.6492 23.6318H5.57474C4.92805 23.6318 4.39893 24.1507 4.39893 24.7848V25.6165H12.4301C12.5635 25.5633 12.6492 25.5432 12.6492 25.5432C11.458 24.6365 12.6492 23.6318 12.6492 23.6318Z" fill="#C7C7D7"/>
<path d="M10.2363 11.9854L16.7366 4.38012L25.6763 11.7273L19.1761 19.3325L10.2363 11.9854Z" fill="#7989DC"/>
<path d="M20.3415 7.52604C20.4196 7.553 20.499 7.54327 20.5654 7.51003L16.749 4.37305L10.2446 11.9819L13.95 15.0277C14.0027 14.9496 14.0159 14.8465 13.9699 14.7523C13.4882 13.7638 14.1166 13.1218 14.1166 13.1218C14.1166 13.1218 17.4265 9.41971 18.416 8.11759C19.0599 7.27036 19.8607 7.36005 20.3415 7.52604Z" fill="#2967F0"/>
<path d="M17.9614 2.93551C18.9434 3.74268 25.9369 9.49127 26.9255 10.3037C26.9255 10.3037 26.339 9.16597 27.1949 8.16463C25.4912 6.76423 21.0664 3.12715 20.0622 2.30176C19.2063 3.30309 17.9614 2.93551 17.9614 2.93551Z" fill="#7989DC"/>
<path d="M22.0262 6.03481C21.9925 5.25836 22.5399 5.02045 22.8747 4.94753C22.9689 4.927 23.04 4.86029 23.0728 4.77641C21.7409 3.68155 20.5301 2.68642 20.0622 2.30176C19.2063 3.30302 17.9614 2.93551 17.9614 2.93551C18.413 3.30669 20.1359 4.72287 21.9615 6.22346C22.0046 6.17214 22.0293 6.10589 22.0262 6.03481Z" fill="#2967F0"/>
<path d="M9.03462 13.3779C10.0166 14.1851 17.0101 19.9337 17.9987 20.7462C17.9987 20.7462 16.7538 20.3786 15.8978 21.38C14.1941 19.9795 9.76926 16.3424 8.76514 15.5171C9.62109 14.5158 9.03462 13.3779 9.03462 13.3779Z" fill="#7989DC"/>
<path d="M9.03462 13.3779C9.03462 13.3779 9.62109 14.5157 8.76514 15.517C9.21686 15.8884 10.361 16.8287 11.6381 17.8785C11.709 17.82 11.7497 17.7295 11.737 17.6331C11.6387 16.8902 12.2128 16.6916 12.5789 16.64C12.6804 16.6257 12.7607 16.5586 12.7977 16.4712C11.062 15.0444 9.46658 13.733 9.03462 13.3779Z" fill="#2967F0"/>
<path d="M25.8652 15.6544L24.8611 15.5908C24.5789 15.9209 23.4043 17.295 22.9326 17.8468L23.1719 18.8052C23.5129 20.1713 24.548 21.2647 25.9083 21.7109C26.9005 22.0364 28.0659 22.6681 29.3461 23.5707C29.391 23.4365 29.4613 23.308 29.5595 23.1931L31.3868 21.0554C31.485 20.9405 31.6017 20.8502 31.7287 20.7835C30.5987 19.7049 29.7609 18.6901 29.2608 17.789C28.5753 16.5536 27.2966 15.7451 25.8652 15.6544Z" fill="#C7C7D7"/>
<path d="M27.3306 19.7858C26.9831 19.6614 26.7137 19.4827 26.5051 19.2846C25.9204 18.7296 25.879 17.8214 26.3759 17.1897L27.3052 16.0083C26.857 15.8098 26.371 15.6865 25.8652 15.6544L24.8611 15.5908C24.5789 15.9209 23.4043 17.295 22.9326 17.8468L23.1719 18.8052C23.5129 20.1713 24.548 21.2647 25.9083 21.7109C26.9005 22.0364 28.0659 22.6681 29.3461 23.5707C29.391 23.4365 29.4613 23.308 29.5595 23.1931L30.5674 22.0141C29.8594 21.3956 28.3605 20.1547 27.3306 19.7858Z" fill="#DEDEE7"/>
<path d="M36 24.6633L34.2815 22.8633L33.2151 21.9883C33.1706 22.1272 33.0984 22.26 32.9971 22.3786L31.1698 24.5163C31.0685 24.6349 30.9476 24.7277 30.8159 24.795L35.0819 28.3016C35.6369 27.1218 35.7031 25.9599 36 24.6633Z" fill="#C7C7D7"/>
<path d="M33.8983 25.0006C33.4177 24.6055 33.343 23.9045 33.7365 23.4257C33.7411 23.4201 33.7453 23.4151 33.7489 23.4109L34.2676 22.8534L33.2151 21.9883C33.1706 22.1272 33.0984 22.26 32.9971 22.3786L31.1698 24.5163C31.0685 24.6349 30.9476 24.7277 30.8159 24.795L35.0819 28.3016C35.3482 27.7356 35.5857 27.154 35.7945 26.5593L33.8983 25.0006Z" fill="#C7C7D7"/>
<path d="M35.6092 28.724L34.4766 27.8049L35.7654 26.541L35.9997 26.6942V26.7325V29.0647L35.6092 28.724Z" fill="#DEDEE7"/>
<path d="M27.0982 11.6412C26.7403 12.0598 26.1042 12.1147 25.6773 11.7638L16.7133 4.39552C16.2863 4.04456 16.2304 3.42076 16.5882 3.00217C16.9461 2.58349 17.5823 2.52865 18.0091 2.87954L26.9732 10.2478C27.4001 10.5987 27.4561 11.2225 27.0982 11.6412Z" fill="#2967F0"/>
<path d="M18.0091 2.87954C17.5823 2.52865 16.946 2.58349 16.5882 3.00217C16.2304 3.42076 16.2863 4.04463 16.7133 4.39552L20.5239 7.52775C20.6307 7.49382 20.7145 7.40037 20.7213 7.27889C20.7616 6.569 21.4024 6.37475 21.7818 6.32213C21.8812 6.30835 21.9614 6.24469 22.0003 6.16013L18.0091 2.87954Z" fill="#2967F0"/>
<path d="M29.0646 8.05531C28.5816 8.62028 27.723 8.69443 27.1468 8.22076L20.0141 2.35789C19.438 1.8843 19.3625 1.04235 19.8454 0.477384C20.3284 -0.0875869 21.187 -0.161732 21.7631 0.311937L28.8958 6.17488C29.472 6.64848 29.5475 7.49034 29.0646 8.05531Z" fill="#2967F0"/>
<path d="M21.7631 0.311905C21.187 -0.161687 20.3284 -0.0876185 19.8454 0.477352C19.3625 1.04232 19.438 1.88426 20.0141 2.35786L23.0369 4.84247C23.0769 4.78878 23.098 4.72114 23.0923 4.65067C22.9732 3.1651 24.1593 2.91968 24.6634 2.88215C24.7212 2.87786 24.7737 2.85557 24.8166 2.8218L21.7631 0.311905Z" fill="#7989DC"/>
<path d="M19.3717 20.6793C19.7295 20.2606 19.6736 19.6368 19.2466 19.2859L10.2826 11.9176C9.8557 11.5667 9.21948 11.6216 8.86165 12.0403C8.50382 12.4588 8.55975 13.0827 8.98671 13.4336L17.9507 20.8019C18.3776 21.1529 19.0138 21.0979 19.3717 20.6793Z" fill="#2967F0"/>
<path d="M10.2826 11.9176C9.8557 11.5667 9.21948 11.6216 8.86165 12.0403C8.50382 12.4588 8.55975 13.0827 8.98671 13.4336L12.7606 16.5357C12.8039 16.4811 12.8267 16.4108 12.8193 16.3372C12.7297 15.4446 13.3101 15.2055 13.7494 15.1503C13.8649 15.1359 13.9509 15.0573 13.9835 14.9597L10.2826 11.9176Z" fill="#2967F0"/>
<path d="M16.1149 23.2037C16.5978 22.6387 16.5223 21.7968 15.9461 21.3232L8.81344 15.4603C8.23728 14.9868 7.37868 15.0608 6.89572 15.6258C6.41275 16.1908 6.48828 17.0327 7.06444 17.5063L14.1971 23.3692C14.7734 23.8428 15.6319 23.7688 16.1149 23.2037Z" fill="#2967F0"/>
<path d="M8.81344 15.4603C8.23729 14.9868 7.37868 15.0608 6.89572 15.6258C6.41275 16.1908 6.48828 17.0326 7.06444 17.5063L9.97246 19.8966C9.99597 19.8507 10.0073 19.7987 10.0014 19.7451C9.84975 18.3585 10.9446 18.0228 11.4963 17.9416C11.5773 17.9296 11.6451 17.8849 11.6886 17.8236L8.81344 15.4603Z" fill="#7989DC"/>
<path d="M25.6528 25.543H4.54566C2.64177 25.543 1.08398 27.0705 1.08398 28.9375V29.7745C2.03796 31.4053 3.23518 32.8815 4.62596 34.1572H29.1144V28.9374C29.1145 27.0705 27.5567 25.543 25.6528 25.543Z" fill="#DEDEE7"/>
<path d="M11.7702 34.0108C10.8915 33.6633 10.8915 32.6731 10.8915 32.6731C10.8915 32.6731 10.8915 30.088 10.8915 28.0199C10.8915 25.9518 12.649 25.543 12.649 25.543H4.54566C2.64177 25.543 1.08398 27.0705 1.08398 28.9375V29.7745C2.03796 31.4053 3.23518 32.8815 4.62596 34.1572H11.6324C11.7112 34.0645 11.7702 34.0108 11.7702 34.0108Z" fill="#C7C7D7"/>
<path d="M1.08398 33.894V29.7578L4.5209 34.0089H1.08398V33.9323V33.894Z" fill="#C7C7D7"/>
<path d="M30.2 34.6576C30.0579 34.2803 29.6889 34.0107 29.2546 34.0107H4.4668C5.23948 34.7358 6.07402 35.398 6.96192 35.9889H28.4302C29.0468 35.5785 29.6377 35.1339 30.2 34.6576Z" fill="#8B939A"/>
<path d="M11.7703 34.0107H1.05799C-0.327213 34.381 -0.327298 35.5952 0.91146 36L11.7703 35.9889C10.5596 35.1111 11.7703 34.0107 11.7703 34.0107Z" fill="#ABABBB"/>
<path d="M20.7798 17.3589L21.7155 18.1281C22.0778 18.4259 22.6228 18.3789 22.9265 18.0236L25.0373 15.5544C25.3411 15.199 25.2932 14.6646 24.9308 14.3668L23.9951 13.5977L20.7798 17.3589Z" fill="#2967F0"/>
<path d="M32.91 20.8201C32.4178 20.4156 31.6844 20.4789 31.2719 20.9615L29.4446 23.0992C29.032 23.5818 29.0965 24.301 29.5887 24.7055C30.0809 25.11 30.8143 25.0468 31.2268 24.5641L33.0541 22.4264C33.4666 21.9439 33.4021 21.2247 32.91 20.8201Z" fill="#DEDEE7"/>
<path d="M31.093 22.9117C30.7126 22.599 30.5643 22.1164 30.6651 21.6719L29.4446 23.0996C29.032 23.5823 29.0965 24.3014 29.5887 24.7059C30.0809 25.1105 30.8143 25.0472 31.2268 24.5646L32.5084 23.0653C32.0621 23.2914 31.5021 23.248 31.093 22.9117Z" fill="#C7C7D7"/>
<path d="M24.0522 13.6445C22.218 14.0111 20.8847 15.5708 20.8369 17.4058L22.5555 15.6235L24.0522 13.6445Z" fill="#2967F0"/>
<rect x="10.6362" y="33.5459" width="20.4545" height="2.45455" rx="0.774193" fill="#8B939A"/>
</g>
<defs>
<clipPath id="clip0_427_2325">
<rect width="36" height="36" fill="white"/>
</clipPath>
</defs>
</svg>
