<svg width="36" height="36" viewBox="0 0 36 36" fill="none" xmlns="http://www.w3.org/2000/svg">
<path d="M30.1071 27.8561V28.9811C30.1071 29.5999 30.6133 30.1061 31.2321 30.1061H30.9958C30.034 30.1061 29.0777 29.9486 28.1721 29.6505C26.8558 29.2118 25.6577 28.4693 24.679 27.4905L24.5327 27.3443V27.3386C25.1852 26.8605 25.6071 26.0843 25.6071 25.2124V22.3436C25.6071 22.2255 25.6015 22.1074 25.5902 21.9893H25.5958L27.1315 24.4474C27.604 25.2068 28.279 25.8199 29.0833 26.2193C29.7527 26.5511 30.484 26.7255 31.2321 26.7311C30.6133 26.7311 30.1071 27.2374 30.1071 27.8561Z" fill="#2967F0"/>
<path d="M33.482 10.9814V11.0883C33.482 13.4227 32.5201 15.6052 30.8945 17.1689H30.107H29.5445C29.0776 17.1689 28.6557 17.3602 28.352 17.6639C28.0482 17.9677 27.857 18.3896 27.857 18.8564C27.857 18.9239 27.8626 18.9971 27.8738 19.0646H27.8682L25.1963 20.2289H25.1907C24.662 18.9239 23.6551 17.8496 22.3613 17.2477C22.7663 17.0846 23.1432 16.8764 23.4976 16.6233L23.5145 16.6177L27.3788 14.9639C28.982 14.2777 30.0451 12.7252 30.1013 10.9814H30.107H33.482Z" fill="#2967F0"/>
<path d="M23.9194 33.4812L23.2107 33.7175C21.4444 34.3081 19.5938 34.6062 17.7319 34.6062C15.8701 34.6062 14.0194 34.3081 12.2532 33.7175L11.5444 33.4812C12.4388 31.6925 12.9901 29.7519 13.1644 27.7719C13.4063 27.71 13.6426 27.6088 13.8619 27.4794L17.7319 25.1562L21.6019 27.4794C21.8213 27.6088 22.0576 27.71 22.2994 27.7719C22.4738 29.7519 23.0251 31.6925 23.9194 33.4812Z" fill="#2967F0"/>
<path d="M9.85693 22.3436V25.2124C9.85693 26.0843 10.2788 26.8605 10.9313 27.3386C9.73881 28.4524 8.30443 29.2624 6.74068 29.7124C5.92506 29.943 5.08131 30.0724 4.23193 30.1005C4.13068 30.1061 4.02381 30.1061 3.92256 30.1061H3.10693C3.72568 30.1061 4.23193 29.5999 4.23193 28.9811V27.8561C4.23193 27.243 3.73693 26.7424 3.12381 26.7311C3.49506 26.7311 3.86631 26.703 4.23193 26.6411C4.58631 26.5849 4.94068 26.4949 5.28381 26.3824C6.03193 26.1349 6.72943 25.7524 7.34256 25.2686C7.95568 24.7849 8.48443 24.1999 8.90631 23.5249L9.86818 21.9893H9.87381C9.86256 22.1074 9.85693 22.2255 9.85693 22.3436Z" fill="#2967F0"/>
<path d="M25.6069 22.3439V25.2127C25.6069 26.0846 25.1851 26.8608 24.5326 27.3389C24.0938 27.6652 23.5538 27.8564 22.9632 27.8564C22.7382 27.8564 22.5188 27.8283 22.2994 27.7721C22.0576 27.7102 21.8213 27.6089 21.6019 27.4796L17.7319 25.1564L13.8619 27.4796C13.6426 27.6089 13.4063 27.7102 13.1644 27.7721C12.9451 27.8283 12.7257 27.8564 12.5007 27.8564C11.9101 27.8564 11.3644 27.6652 10.9313 27.3389C10.2788 26.8608 9.85693 26.0846 9.85693 25.2127V22.3439C9.85693 22.2258 9.86256 22.1077 9.87381 21.9896C9.90756 21.3708 10.0482 20.7802 10.2732 20.2289C10.8019 18.9239 11.8088 17.8496 13.1026 17.2477C13.5019 17.0564 13.9294 16.9158 14.3794 16.8258L15.4819 16.6064L15.8138 16.9383C16.3201 17.4446 17.0119 17.7314 17.7319 17.7314C18.4519 17.7314 19.1438 17.4446 19.6501 16.9383L19.9819 16.6064L21.0844 16.8258C21.5344 16.9158 21.9619 17.0564 22.3613 17.2477C23.6551 17.8496 24.6619 18.9239 25.1907 20.2289C25.4157 20.7802 25.5563 21.3708 25.5901 21.9896C25.6013 22.1077 25.6069 22.2258 25.6069 22.3439Z" fill="#7989DC"/>
<path fill-rule="evenodd" clip-rule="evenodd" d="M23.3167 27.8332C23.7691 27.7731 24.1828 27.5988 24.5323 27.3389C25.1848 26.8608 25.6067 26.0846 25.6067 25.2127V22.3439C25.6067 22.2258 25.6011 22.1077 25.5898 21.9896C25.5561 21.3708 25.4155 20.7802 25.1905 20.2289C24.6617 18.9239 23.6548 17.8496 22.3611 17.2477C21.9617 17.0564 21.5342 16.9158 21.0842 16.8258L19.9817 16.6064L19.6498 16.9383C19.4705 17.1177 19.2678 17.2695 19.0488 17.3908C24.5825 19.7981 24.299 25.0506 23.3167 27.8332Z" fill="#6775BD"/>
<path d="M13.1026 17.2477C11.8088 17.8496 10.8019 18.9239 10.2732 20.2289H10.2676L7.03881 18.8171C3.96756 17.4727 1.98193 14.4408 1.98193 11.0883V10.9814H5.35693H5.36256C5.41881 12.7252 6.48193 14.2777 8.08506 14.9639L11.9494 16.6177L11.9663 16.6233C12.3207 16.8764 12.6976 17.0846 13.1026 17.2477Z" fill="#2967F0"/>
<path d="M33.4819 20.448V22.7936C33.4819 23.4124 32.9757 23.9186 32.3569 23.9186H31.2319V20.5436H32.9194C33.1163 20.5436 33.3076 20.5099 33.4819 20.4424V20.448Z" fill="#AAB2BD"/>
<path d="M31.7141 24.0161V30.3781C31.7141 32.0563 31.5212 33.4294 31.2855 33.4294H30.8569V24.2755V23.5723C30.9319 23.5723 31.6476 23.7553 31.7141 23.5723V24.0161Z" fill="#28CF89"/>
<path d="M29.5444 20.5436H31.2319V23.9186H30.1069C29.4882 23.9186 28.9819 23.4124 28.9819 22.7936V20.448V20.4424C29.1563 20.5099 29.3476 20.5436 29.5444 20.5436Z" fill="#AAB2BD"/>
<path d="M32.3569 17.1689H32.9194C33.8532 17.1689 34.6069 17.9227 34.6069 18.8564C34.6069 19.3233 34.4157 19.7452 34.1119 20.0489C33.9376 20.2233 33.7238 20.3639 33.4819 20.4427C33.3076 20.5102 33.1163 20.5439 32.9194 20.5439H31.2319H29.5444C29.3476 20.5439 29.1563 20.5102 28.9819 20.4427C28.3857 20.2402 27.9469 19.7058 27.8738 19.0646C27.8626 18.9971 27.8569 18.9239 27.8569 18.8564C27.8569 18.3896 28.0482 17.9677 28.3519 17.6639C28.6557 17.3602 29.0776 17.1689 29.5444 17.1689H30.1069H30.8944H32.3569Z" fill="#FFB8AC"/>
<path d="M25.6069 13.7939C25.2188 14.9527 24.4763 15.9371 23.5144 16.6177L23.4976 16.6233C23.1432 16.8764 22.7663 17.0846 22.3613 17.2477C21.9619 17.0564 21.5344 16.9158 21.0844 16.8258L19.9819 16.6064L19.5488 14.8796C20.2576 14.4464 20.8482 13.8614 21.2982 13.1808C21.8944 12.2752 22.2319 11.2008 22.2319 10.0702V7.60645C22.2319 6.9877 21.7257 6.48145 21.1069 6.48145H14.3569C13.7382 6.48145 13.2319 6.9877 13.2319 7.60645V10.0702C13.2319 12.0502 14.2613 13.8614 15.9151 14.8796L15.4819 16.6064L14.3794 16.8258C13.9294 16.9158 13.5019 17.0564 13.1026 17.2477C12.6976 17.0846 12.3207 16.8764 11.9663 16.6233L11.9494 16.6177C11.6457 16.4039 11.3644 16.1564 11.1113 15.8864C10.5544 15.3014 10.1213 14.5927 9.85693 13.7939C10.5882 12.6914 10.9819 11.4033 10.9819 10.0758V7.60645C10.9819 4.50145 13.5019 1.98145 16.6069 1.98145H18.8569C21.9619 1.98145 24.4819 4.50145 24.4819 7.60645V10.0758C24.4819 11.4033 24.8757 12.6914 25.6069 13.7939Z" fill="#7F7369"/>
<path d="M5.35693 22.7939V23.9189C5.35693 24.2283 5.10381 24.4814 4.79443 24.4814H4.23193H1.98193H1.41943C1.11006 24.4814 0.856934 24.2283 0.856934 23.9189V22.7939C0.856934 22.4846 1.11006 22.2314 1.41943 22.2314H4.79443C5.10381 22.2314 5.35693 22.4846 5.35693 22.7939Z" fill="#AAB2BD"/>
<path d="M5.35693 32.9189V34.0439C5.35693 34.3533 5.10381 34.6064 4.79443 34.6064H1.41943C1.11006 34.6064 0.856934 34.3533 0.856934 34.0439V32.9189C0.856934 32.6096 1.11006 32.3564 1.41943 32.3564H1.98193H4.23193H4.79443C5.10381 32.3564 5.35693 32.6096 5.35693 32.9189Z" fill="#AAB2BD"/>
<path d="M4.23193 30.1062V32.3562H1.98193V30.1062H3.10693H3.92256C4.02381 30.1062 4.13068 30.1062 4.23193 30.1006V30.1062Z" fill="#CCD1D9"/>
<path d="M4.23193 24.4814V26.6414C3.86631 26.7033 3.49506 26.7314 3.12381 26.7314C3.11818 26.7314 3.11256 26.7314 3.10693 26.7314H1.98193V24.4814H4.23193Z" fill="#CCD1D9"/>
<path d="M33.4819 27.2939V29.5439C33.4819 29.8533 33.2288 30.1064 32.9194 30.1064H31.2319C30.6132 30.1064 30.1069 29.6002 30.1069 28.9814V27.8564C30.1069 27.2377 30.6132 26.7314 31.2319 26.7314H31.2544H32.9194C33.2288 26.7314 33.4819 26.9846 33.4819 27.2939Z" fill="#F0D0B4"/>
<path d="M3.10693 26.7314H3.12381C3.73693 26.7427 4.23193 27.2433 4.23193 27.8564V28.9814C4.23193 29.6002 3.72568 30.1064 3.10693 30.1064H1.98193H1.41943C1.11006 30.1064 0.856934 29.8533 0.856934 29.5439V27.2939C0.856934 26.9846 1.11006 26.7314 1.41943 26.7314H1.98193H3.10693Z" fill="#F0D0B4"/>
<path d="M28.9819 7.04395V1.41895C28.9819 1.10957 29.2351 0.856445 29.5444 0.856445H34.0444C34.3538 0.856445 34.6069 1.10957 34.6069 1.41895V7.04395C34.6069 7.35332 34.3538 7.60645 34.0444 7.60645H31.7944H29.5444C29.2351 7.60645 28.9819 7.35332 28.9819 7.04395Z" fill="#C5C6C9"/>
<path d="M30.1067 10.8239V9.29395C30.1067 8.82707 30.2979 8.4052 30.6017 8.10145C30.9054 7.7977 31.3273 7.60645 31.7942 7.60645C32.7279 7.60645 33.4817 8.3602 33.4817 9.29395V10.9814H30.1067H30.1011C30.1067 10.9308 30.1067 10.8746 30.1067 10.8239Z" fill="#F0D0B4"/>
<path d="M19.5488 14.8799L19.9819 16.6068L19.6501 16.9386C19.1438 17.4449 18.4519 17.7318 17.7319 17.7318C17.0119 17.7318 16.3201 17.4449 15.8138 16.9386L15.4819 16.6068L15.9151 14.8799C16.1513 15.0261 16.3932 15.1499 16.6519 15.2624C16.9951 15.4086 17.3607 15.4818 17.7319 15.4818C18.1032 15.4818 18.4688 15.4086 18.8119 15.2624C19.0707 15.1499 19.3126 15.0261 19.5488 14.8799Z" fill="#F0D0B4"/>
<path d="M22.2319 7.60645V10.0702C22.2319 11.2008 21.8944 12.2752 21.2982 13.1808C20.8482 13.8614 20.2576 14.4464 19.5488 14.8796C19.3126 15.0258 19.0707 15.1496 18.8119 15.2621C18.4688 15.4083 18.1032 15.4814 17.7319 15.4814C17.3607 15.4814 16.9951 15.4083 16.6519 15.2621C16.3932 15.1496 16.1513 15.0258 15.9151 14.8796C14.2613 13.8614 13.2319 12.0502 13.2319 10.0702V7.60645C13.2319 6.9877 13.7382 6.48145 14.3569 6.48145H21.1069C21.7257 6.48145 22.2319 6.9877 22.2319 7.60645Z" fill="#F0D0B4"/>
<path d="M18.8569 23.8458C18.8569 24.0483 18.8007 24.2396 18.7051 24.4083L16.6069 23.3564V21.1064C16.6069 20.7971 16.7307 20.5158 16.9388 20.3133C17.1413 20.1052 17.4226 19.9814 17.7319 19.9814C18.3507 19.9814 18.8569 20.4877 18.8569 21.1064V23.3564V23.8458Z" fill="#F0D0B4"/>
<path d="M5.35693 10.8239C5.35693 10.8746 5.35693 10.9308 5.36256 10.9814H5.35693H1.98193V9.29395C1.98193 8.3602 2.73568 7.60645 3.66943 7.60645C4.13631 7.60645 4.55818 7.7977 4.86193 8.10145C5.16568 8.4052 5.35693 8.82707 5.35693 9.29395V10.8239Z" fill="#F0D0B4"/>
<path d="M4.23193 0.856445C6.09381 0.856445 7.60693 2.36957 7.60693 4.23145C7.60693 6.09332 6.09381 7.60645 4.23193 7.60645C2.37006 7.60645 0.856934 6.09332 0.856934 4.23145C0.856934 2.36957 2.37006 0.856445 4.23193 0.856445Z" fill="#ABABBB"/>
<path d="M4.23193 5.35645C4.85325 5.35645 5.35693 4.85277 5.35693 4.23145C5.35693 3.61012 4.85325 3.10645 4.23193 3.10645C3.61061 3.10645 3.10693 3.61012 3.10693 4.23145C3.10693 4.85277 3.61061 5.35645 4.23193 5.35645Z" fill="#69D6F4"/>
<path fill-rule="evenodd" clip-rule="evenodd" d="M18 6.48145H21.1071C21.7259 6.48145 22.2321 6.9877 22.2321 7.60645V10.0702C22.2321 11.2008 21.8946 12.2752 21.2984 13.1808C20.8484 13.8614 20.2578 14.4464 19.549 14.8796L19.9821 16.6064L21.0846 16.8258C21.5346 16.9158 21.9621 17.0564 22.3615 17.2477C22.7665 17.0846 23.1434 16.8764 23.4978 16.6233L23.5146 16.6177C24.4765 15.9371 25.219 14.9527 25.6071 13.7939C24.8759 12.6914 24.4821 11.4033 24.4821 10.0758V7.60645C24.4821 4.50145 21.9621 1.98145 18.8571 1.98145H18V6.48145Z" fill="#4C4846"/>
<rect x="30" y="1.71387" width="3.42857" height="0.857143" rx="0.428571" fill="#656D78"/>
<rect x="30" y="3.42871" width="3.42857" height="0.857143" rx="0.428571" fill="#656D78"/>
</svg>
