<svg width="36" height="36" viewBox="0 0 36 36" fill="none" xmlns="http://www.w3.org/2000/svg">
<rect x="17.9502" y="2.20801" width="1.76574" height="5.29722" rx="0.88287" fill="#2967F0"/>
<rect x="6.54541" y="9" width="1.63636" height="4.90909" rx="0.818182" fill="#2967F0"/>
<rect x="9.81836" y="9.81836" width="1.63636" height="4.90909" rx="0.818182" fill="#7989DC"/>
<rect x="21.4819" y="0.442383" width="1.76574" height="7.06296" rx="0.88287" fill="#7989DC"/>
<rect x="25.0137" y="2.20801" width="1.76574" height="5.29722" rx="0.88287" fill="#2967F0"/>
<path d="M16.3638 8.00793C16.3638 7.21017 16.8987 6.51149 17.6688 6.30335L30.8776 2.73342C31.3976 2.59286 31.9092 2.98455 31.9092 3.52326V33.5455H16.3638V8.00793Z" fill="#C7C7D7"/>
<rect x="5.72705" y="13.0908" width="12.2727" height="20.4545" fill="#DEDEE7"/>
<rect x="7.35547" y="14.5684" width="1.76574" height="1.76574" fill="white"/>
<rect x="7.35547" y="18.0996" width="1.76574" height="1.76574" fill="white"/>
<rect x="7.35547" y="21.6309" width="1.76574" height="1.76574" fill="white"/>
<rect x="7.35547" y="25.1626" width="1.76574" height="1.76574" fill="white"/>
<rect x="10.8877" y="14.5684" width="1.76574" height="1.76574" fill="white"/>
<rect x="10.8877" y="18.0996" width="1.76574" height="1.76574" fill="white"/>
<rect x="10.8877" y="21.6309" width="1.76574" height="1.76574" fill="white"/>
<rect x="10.8877" y="25.1626" width="1.76574" height="1.76574" fill="white"/>
<rect x="14.4194" y="14.5684" width="1.76574" height="1.76574" fill="white"/>
<rect x="28.5449" y="5.73926" width="1.76574" height="24.7204" rx="0.818182" fill="white"/>
<rect x="25.0137" y="7.50488" width="1.76574" height="22.9546" rx="0.818182" fill="white"/>
<rect x="21.4819" y="9.271" width="1.76574" height="21.1889" rx="0.818182" fill="white"/>
<rect x="17.9502" y="11.0366" width="1.76574" height="19.4231" rx="0.818182" fill="white"/>
<rect x="14.4194" y="18.0996" width="1.76574" height="1.76574" fill="white"/>
<rect x="14.4194" y="21.6309" width="1.76574" height="1.76574" fill="white"/>
<rect x="14.4194" y="25.1626" width="1.76574" height="1.76574" fill="white"/>
<rect x="4.09082" y="11.4546" width="15.5455" height="1.63636" rx="0.818182" fill="#2967F0"/>
<rect x="14.4194" y="6.3208" width="18.9239" height="1.76574" rx="0.88287" transform="rotate(-15 14.4194 6.3208)" fill="#2967F0"/>
<rect x="18" y="31.9092" width="15.5455" height="1.63636" rx="0.818182" fill="#ABABBB"/>
<rect x="4.09082" y="31.9092" width="15.5455" height="1.63636" rx="0.818182" fill="#C1C1D7"/>
</svg>
