<svg viewBox="0 0 20 20" fill="none" xmlns="http://www.w3.org/2000/svg" height="20px" width="20px">
  <path
    d="M2.12478 2.22521C0.710283 3.69446 0.999783 5.25521 0.999783 9.99671C0.999783 13.9342 0.312783 17.8815 3.90828 18.8107C5.03103 19.0995 14.979 19.0995 16.1003 18.8092C17.5973 18.423 18.8153 17.2087 18.9818 15.0915C19.005 14.796 19.005 5.20271 18.981 4.90121C18.804 2.64596 17.4158 1.34621 15.5865 1.08296C15.1673 1.02221 15.0833 1.00421 12.9323 1.00046C5.30253 1.00421 3.63003 0.664462 2.12478 2.22521V2.22521Z"
    fill="url(#paint0_linear_462_264)"/>
  <path
    d="M9.99836 3.35407C7.27511 3.35407 4.68911 3.11182 3.70136 5.64682C3.29336 6.69382 3.35261 8.05357 3.35261 10.0006C3.35261 11.7091 3.29786 13.3148 3.70136 14.3536C4.68686 16.8901 7.29386 16.6471 9.99686 16.6471C12.6046 16.6471 15.2934 16.9186 16.2931 14.3536C16.7019 13.2961 16.6419 11.9566 16.6419 10.0006C16.6419 7.40407 16.7851 5.72782 15.5259 4.46932C14.2509 3.19432 12.5266 3.35407 9.99536 3.35407H9.99836ZM9.40286 4.55182C15.0834 4.54282 15.8064 3.91132 15.4074 12.6841C15.2656 15.7868 12.9031 15.4463 9.99911 15.4463C4.70411 15.4463 4.55186 15.2948 4.55186 9.99757C4.55186 4.63882 4.97186 4.55482 9.40286 4.55032V4.55182ZM13.5459 5.65507C13.1056 5.65507 12.7486 6.01207 12.7486 6.45232C12.7486 6.89257 13.1056 7.24957 13.5459 7.24957C13.9861 7.24957 14.3431 6.89257 14.3431 6.45232C14.3431 6.01207 13.9861 5.65507 13.5459 5.65507V5.65507ZM9.99836 6.58732C8.11361 6.58732 6.58586 8.11582 6.58586 10.0006C6.58586 11.8853 8.11361 13.4131 9.99836 13.4131C11.8831 13.4131 13.4101 11.8853 13.4101 10.0006C13.4101 8.11582 11.8831 6.58732 9.99836 6.58732V6.58732ZM9.99836 7.78507C12.9271 7.78507 12.9309 12.2161 9.99836 12.2161C7.07036 12.2161 7.06586 7.78507 9.99836 7.78507Z"
    fill="white"/>
  <defs>
    <linearGradient id="paint0_linear_462_264" x1="2.1593" y1="17.8508" x2="18.8884" y2="3.37194"
                    gradientUnits="userSpaceOnUse">
      <stop stop-color="#FFDD55"/>
      <stop offset="0.5" stop-color="#FF543E"/>
      <stop offset="1" stop-color="#C837AB"/>
    </linearGradient>
  </defs>
</svg>
